<svg xmlns="http://www.w3.org/2000/svg" width="164.385" height="65.773" viewBox="0 0 164.385 65.773">
  <g id="LOGO" transform="translate(0 -0.529)">
    <path id="Trazado_1" data-name="Trazado 1" d="M1.68.816A52.357,52.357,0,0,1,.078,41.44c-.1.224.19.42.494.224,9.587-6.287,17.946-18.342,20.7-28.191A79.248,79.248,0,0,1,2.509.28.5.5,0,0,0,1.68.816" transform="translate(119.138 0.424)" fill="#ee2527" fill-rule="evenodd"/>
    <path id="Trazado_2" data-name="Trazado 2" d="M7.365,39.878c-2.73-.938-3.527-1.387-3.527-2.552,0-1.063,1.153-1.861,2.674-1.861a9.964,9.964,0,0,1,4.6,1.282.144.144,0,0,0,.09.031.157.157,0,0,0,.1-.031.209.209,0,0,0,.11-.152l.442-2.843a.213.213,0,0,0-.118-.22,12.734,12.734,0,0,0-5.126-1.047C3.064,32.485.584,34.632.584,37.7c0,2.82,1.893,4,5.616,5.3,2.472.845,3.286,1.348,3.286,2.656s-1.241,2.166-3.181,2.166A13.21,13.21,0,0,1,.751,46.308a.179.179,0,0,0-.1-.032.176.176,0,0,0-.091.026.222.222,0,0,0-.111.151L0,49.235a.208.208,0,0,0,.123.22,16.021,16.021,0,0,0,6.041,1.319c3.935,0,6.576-2.206,6.576-5.485,0-2.97-1.887-4.193-5.377-5.411m23.172-7.154H27.419a.205.205,0,0,0-.2.2V43.5c0,2.827-1.327,4.329-3.839,4.329-2.45,0-3.8-1.566-3.8-4.4v-10.5a.207.207,0,0,0-.208-.2H16.285a.207.207,0,0,0-.2.2V43.565c0,4.583,2.718,7.318,7.263,7.318,4.631,0,7.405-2.791,7.405-7.455v-10.5a.208.208,0,0,0-.212-.2M40.948,40.9H38.96V35.741h2.057c1.5,0,3.289.452,3.289,2.575,0,1.732-1.091,2.58-3.359,2.58m.382-8.173H35.67a.2.2,0,0,0-.194.2v17.4a.205.205,0,0,0,.194.209h3.087a.211.211,0,0,0,.2-.209V43.872h1.987c4.315,0,6.78-2.047,6.78-5.624,0-3.408-2.449-5.524-6.4-5.524M62.4,47.417H54.655V42.843h6.4a.233.233,0,0,0,.157-.063.211.211,0,0,0,.045-.17L60.819,39.9a.211.211,0,0,0-.208-.171H54.655v-3.88h7.5a.208.208,0,0,0,.206-.209V32.928a.21.21,0,0,0-.206-.2H51.36a.208.208,0,0,0-.2.2v17.4a.217.217,0,0,0,.2.212H62.4a.21.21,0,0,0,.2-.212v-2.71a.2.2,0,0,0-.2-.2m12.812-9.1c0,1.725-1.171,2.676-3.289,2.676H69.864V35.813H71.92C73.422,35.813,75.209,36.249,75.209,38.316Zm-.015,5.009A5.13,5.13,0,0,0,78.7,38.286c0-3.489-2.522-5.563-6.75-5.563H66.573a.2.2,0,0,0-.2.2v17.4a.21.21,0,0,0,.2.213h3.09a.211.211,0,0,0,.2-.213V43.81h1.577l4.793,6.846a.2.2,0,0,0,.17.082.14.14,0,0,0,.038,0l3.192-.723a.218.218,0,0,0,.146-.124.2.2,0,0,0-.028-.2ZM97.383,32.743h-3.11a.192.192,0,0,0-.194.137L89.2,45.909,84.415,32.872a.212.212,0,0,0-.192-.144H80.836a.191.191,0,0,0-.137.1.185.185,0,0,0-.018.171l6.775,17.389a.2.2,0,0,0,.186.126H90.5a.2.2,0,0,0,.187-.126l6.884-17.368a.2.2,0,0,0-.19-.281m6.735-.019H101a.213.213,0,0,0-.21.2v17.4a.22.22,0,0,0,.21.21h3.116a.216.216,0,0,0,.212-.21v-17.4a.209.209,0,0,0-.212-.2m17.1,14.694h-7.742V42.843h6.405a.246.246,0,0,0,.161-.063.226.226,0,0,0,.041-.17l-.447-2.715a.2.2,0,0,0-.2-.171h-5.964v-3.88h7.5a.207.207,0,0,0,.212-.209V32.928a.209.209,0,0,0-.212-.2H110.188a.2.2,0,0,0-.2.2v17.4a.212.212,0,0,0,.2.212h11.033a.219.219,0,0,0,.208-.212v-2.71a.211.211,0,0,0-.208-.2m28.218.026h-6.384V32.927a.2.2,0,0,0-.2-.2h-3.086a.2.2,0,0,0-.2.2v17.4a.21.21,0,0,0,.2.209h10.112a.191.191,0,0,0,.151-.076.233.233,0,0,0,.049-.168l-.449-2.677a.2.2,0,0,0-.2-.173" transform="translate(0 15.419)" fill="#231f20" fill-rule="evenodd"/>
    <path id="Trazado_3" data-name="Trazado 3" d="M11.332,15.151H3.577V10.577H9.992a.235.235,0,0,0,.156-.063.26.26,0,0,0,.049-.17L9.743,7.63a.194.194,0,0,0-.2-.171H3.577V3.578h7.513a.206.206,0,0,0,.205-.209V.662a.208.208,0,0,0-.205-.2H.3a.2.2,0,0,0-.207.2v17.4a.211.211,0,0,0,.207.212H11.332a.215.215,0,0,0,.2-.212v-2.71a.206.206,0,0,0-.2-.2" transform="translate(152.849 47.686)" fill="#231f20" fill-rule="evenodd"/>
    <path id="Trazado_4" data-name="Trazado 4" d="M122.106,16.74a80.262,80.262,0,0,1-20.71-6.257,63.017,63.017,0,0,1-14.437,21.5c-.322.273-.067.75.461.381a93.714,93.714,0,0,1,34.7-14.654.5.5,0,0,0-.012-.974" transform="translate(41.89 4.803)" fill="#821642" fill-rule="evenodd"/>
    <path id="Trazado_5" data-name="Trazado 5" d="M94.864,47.366H88.493V32.85a.2.2,0,0,0-.205-.2H85.2a.2.2,0,0,0-.2.2v17.4a.209.209,0,0,0,.2.209h10.11a.2.2,0,0,0,.158-.076.217.217,0,0,0,.044-.168l-.447-2.677a.211.211,0,0,0-.2-.173" transform="translate(41.016 15.497)" fill="#231f20" fill-rule="evenodd"/>
  </g>
</svg>
